<?xml version="1.0" encoding="utf-8"?>
<!-- Generator: Adobe Illustrator 19.0.1, SVG Export Plug-In . SVG Version: 6.00 Build 0)  -->
<svg version="1.1" id="Layer_1" xmlns="http://www.w3.org/2000/svg" xmlns:xlink="http://www.w3.org/1999/xlink" x="0px" y="0px"
	 viewBox="0 0 80 88" style="enable-background:new 0 0 80 88;" xml:space="preserve">
<style type="text/css">
	.st0{fill:#17C98E;}
</style>
<g>
	<path class="st0" d="M39.7,1.3C19.4,1.3,3.5,17.7,3.5,38C3.5,49.3,9,59.3,17,66.1v7.4c0,0.1,0,0.5,0,0.5h47c0,0,0-0.4,0-0.5v-7.4
		c8-6.7,12.7-16.8,12.7-28.1C76.7,17.7,60,1.3,39.7,1.3z M25.4,57.8c-5.7,0-10.2-4.6-10.2-10.2c0-5.7,4.6-10.2,10.2-10.2
		s10.2,4.6,10.2,10.2C35.6,53.2,31,57.8,25.4,57.8z M53.4,57.8c-5.7,0-10.2-4.6-10.2-10.2c0-5.7,4.6-10.2,10.2-10.2
		s10.2,4.6,10.2,10.2C63.6,53.2,59,57.8,53.4,57.8z"/>
	<rect x="17" y="76" class="st0" width="10" height="10"/>
	<rect x="29" y="76" class="st0" width="10" height="10"/>
	<rect x="42" y="76" class="st0" width="9" height="10"/>
	<rect x="54" y="76" class="st0" width="10" height="10"/>
</g>
</svg>
